<?xml version="1.0" encoding="utf-8"?>
<!-- Generator: Adobe Illustrator 21.1.0, SVG Export Plug-In . SVG Version: 6.00 Build 0)  -->
<svg version="1.1" id="Layer_1" xmlns="http://www.w3.org/2000/svg" xmlns:xlink="http://www.w3.org/1999/xlink" x="0px" y="0px"
	 viewBox="0 0 179.8 157.2" style="enable-background:new 0 0 179.8 157.2;" xml:space="preserve">
<style type="text/css">
	.st0{fill:#ED2024;}
	.st1{fill:#FFFFFF;}
</style>
<g>
	<path d="M153.3,88.6c0,35-28.4,63.3-63.3,63.3s-63.3-28.4-63.3-63.3S56,5.3,89.9,5.3S153.3,53.6,153.3,88.6z"/>
	<path class="st0" d="M106.5,69.4V9.1c-5.3-2.4-10.9-3.8-16.6-3.8S78.7,6.6,73.3,9.1v60.4c0,9.4,7.5,17,16.6,17
		S106.5,78.8,106.5,69.4z"/>
	<g>
		<path class="st1" d="M103,24.2c6.2,2.9,11.5,7.5,15.9,12.5c0.6,0.6,1.1,1.3,1.7,1.9l1.5,2c0.5,0.7,1,1.3,1.5,2l1.4,2.1
			c0.5,0.7,0.9,1.4,1.4,2.1l1.3,2.2l1.3,2.2l1.2,2.2c3,6,5.4,12.3,6.9,18.9c1.5,6.6,2.1,13.5,1.1,20.2c-0.2,1.1-1.3,1.9-2.4,1.8
			c-1-0.2-1.8-1-1.8-2l0-0.1c-0.1-6.2-1.3-12.3-3-18.3c-1.8-6-4.1-11.8-6.9-17.4l-1-2.1l-1.1-2l-1.1-2c-0.4-0.7-0.8-1.3-1.2-2
			l-1.2-2c-0.4-0.7-0.9-1.3-1.3-1.9l-1.3-1.9c-0.5-0.6-0.9-1.2-1.4-1.9c-3.8-4.9-8-9.5-13.1-13.1l-0.1,0c-0.8-0.6-1-1.8-0.4-2.6
			C101.3,24.1,102.2,23.8,103,24.2z"/>
	</g>
</g>
</svg>
